:version 1.10
:name ASF
:units
  mass 1
  length 1
  angle deg
:documentation
  ASF file generated by Kaydara
:root
  axis xyz
  order  tx ty tz rx ry rz
  position 0 0 0
  orientation 0 0 0
:bonedata
  begin
    id 1
    name LeftUpLegDummy
    direction 1 -2.30186e-007 -8.31532e-007
    length 2.93387
    axis 0 0 0 xyz
  end
  begin
    id 2
    name LeftUpLeg
    direction -1.82929e-007 -1 -1.48925e-009
    length 17.3336
    axis -3.48766 0.00143442 -0.000521554 xyz
    dof rx ry rz
  end
  begin
    id 3
    name LeftLeg
    direction -1.82929e-007 -1 -5.23717e-011
    length 14.9995
    axis 3.68178 -0.00654042 -0.000282425 xyz
    dof rx ry rz
  end
  begin
    id 4
    name LeftFoot
    direction 8.31532e-007 -4.54534e-011 1
    length 6.74421
    axis 1.87234e-006 4.66016e-005 -5.96866e-006 xyz
    dof rx ry rz
  end
  begin
    id 5
    name LeftToes
    direction 0.00818058 -0.00485161 0.999955
    length 3.85048
    axis 1.06247e-005 4.65869e-005 -5.96999e-006 xyz
    dof rx ry rz
  end
  begin
    id 6
    name SpineDummy
    direction -5.8607e-008 0.943407 -0.331637
    length 5.93572
    axis 0 0 0 xyz
  end
  begin
    id 7
    name Spine
    direction -1.04988e-007 0.999988 0.00495137
    length 10.1015
    axis -0.001389 0.000121417 6.61666e-006 xyz
    dof rx ry rz
  end
  begin
    id 8
    name Spine1
    direction 0 0 0
    length 0
    axis -0.001389 0.00012144 6.56766e-006 xyz
    dof rx ry rz
  end
  begin
    id 9
    name RightShoulderDummy
    direction -0.98348 0.17941 -0.0240696
    length 3.59882
    axis -0.001389 0.00012144 6.56766e-006 xyz
  end
  begin
    id 10
    name RightShoulder
    direction -0.978693 0.204882 0.0135597
    length 2.70001
    axis 0.215806 0.000203631 -0.00679732 xyz
    dof rx ry rz
  end
  begin
    id 11
    name RightArm
    direction -1 3.85509e-006 8.31394e-007
    length 10.2459
    axis -23.2009 -0.134239 -0.964098 xyz
    dof rx ry rz
  end
  begin
    id 12
    name RightForeArm
    direction -1 3.85569e-006 8.3129e-007
    length 8.16799
    axis -9.92322 0.0658061 0.17887 xyz
    dof rx ry rz
  end
  begin
    id 13
    name RightHand
    direction -0.992843 -0.0414604 0.112003
    length 5.28593
    axis -0.00960638 0.00330669 -0.185225 xyz
    dof rx ry rz
  end
  begin
    id 14
    name LeftShoulder1Dummy
    direction 0.983523 0.179172 -0.0240748
    length 3.59866
    axis -0.001389 0.00012144 6.56766e-006 xyz
  end
  begin
    id 15
    name LeftShoulder1
    direction 0.978627 0.205195 0.0135605
    length 2.70019
    axis -0.001389 0.00012144 6.57583e-006 xyz
    dof rx ry rz
  end
  begin
    id 16
    name LeftArm
    direction 1 3.51895e-006 -8.60188e-007
    length 10.2459
    axis -23.1894 0.134785 0.967513 xyz
    dof rx ry rz
  end
  begin
    id 17
    name LeftForeArm
    direction 1 3.51921e-006 -7.32029e-007
    length 8.16799
    axis -9.91835 -0.0656957 -0.177789 xyz
    dof rx ry rz
  end
  begin
    id 18
    name LeftHand
    direction 0.992938 -0.0411636 0.11126
    length 5.32135
    axis -0.00960237 -0.00340661 0.185177 xyz
    dof rx ry rz
  end
  begin
    id 19
    name HEadDummy
    direction 1.01974e-006 0.999861 -0.016675
    length 2.99946
    axis -0.001389 0.00012144 6.56766e-006 xyz
  end
  begin
    id 20
    name HEad
    direction -0.0222689 0.980941 0.193023
    length 5.12695
    axis -0.001389 0.00012144 6.56766e-006 xyz
    dof rx ry rz
  end
  begin
    id 21
    name RightUpLegDummy
    direction -1 2.30186e-007 8.31532e-007
    length 2.93387
    axis 0 0 0 xyz
  end
  begin
    id 22
    name RightUpLeg
    direction -1.82966e-007 -1 1.56832e-007
    length 17.3336
    axis -3.4909 -0.000906625 0.00028951 xyz
    dof rx ry rz
  end
  begin
    id 23
    name RightLeg
    direction -1.82786e-007 -1 -1.80317e-007
    length 14.9995
    axis 3.68513 0.0193739 -0.131021 xyz
    dof rx ry rz
  end
  begin
    id 24
    name RightFoot
    direction 8.31721e-007 -4.63324e-011 1
    length 6.74421
    axis 4.81691e-005 -0.120479 -0.188785 xyz
    dof rx ry rz
  end
  begin
    id 25
    name RightToes
    direction 0.00124746 -0.014064 0.9999
    length 3.85082
    axis 0.000481921 0.542163 -0.142575 xyz
    dof rx ry rz
  end
:hierarchy
  begin
    root LeftUpLegDummy SpineDummy RightUpLegDummy
    LeftUpLegDummy LeftUpLeg
    LeftUpLeg LeftLeg
    LeftLeg LeftFoot
    LeftFoot LeftToes
    SpineDummy Spine
    Spine Spine1
    Spine1 RightShoulderDummy LeftShoulder1Dummy HEadDummy
    RightShoulderDummy RightShoulder
    RightShoulder RightArm
    RightArm RightForeArm
    RightForeArm RightHand
    LeftShoulder1Dummy LeftShoulder1
    LeftShoulder1 LeftArm
    LeftArm LeftForeArm
    LeftForeArm LeftHand
    HEadDummy HEad
    RightUpLegDummy RightUpLeg
    RightUpLeg RightLeg
    RightLeg RightFoot
    RightFoot RightToes
  end

:SAMPLES-PER-SECOND 30
:FULLY-SPECIFIED
:DEGREES
114
root  6.48521 32.8691 -5.7087 8.87412 -69.2782 2.65532
LeftUpLeg  -11.8726 21.7443 -10.6338
LeftLeg  27.819 21.1965 9.19989
LeftFoot  -20.6387 -1.56029 -8.55387
LeftToes  4.13622 1.85109e-006 5.31342e-008
Spine  6.30996 -10.5669 11.9187
Spine1  7.39159 -23.5928 26.2547
RightShoulder  0.181234 4.00426 16.6314
RightArm  -44.312 -7.63209 38.5246
RightForeArm  42.2045 5.83225 1.02271
RightHand  1.86469 -18.1647 -11.2518
LeftShoulder1  0.157844 -6.72333 2.26513
LeftArm  13.4299 -36.983 -90.9528
LeftForeArm  97.7802 -77.5991 -125.96
LeftHand  0.00820005 8.75257 -0.262598
HEad  -20.608 -55.7983 37.173
RightUpLeg  -33.1151 11.5371 -7.80639
RightLeg  14.5388 35.6807 6.40755
RightFoot  13.1329 -0.979763 8.87319
RightToes  -37.4267 -0.19826 -0.300129
115
root  6.4857 32.9015 -5.8195 8.07099 -68.3866 3.38788
LeftUpLeg  -11.625 21.4365 -10.5421
LeftLeg  27.4705 20.6825 8.84634
LeftFoot  -20.4 -1.48017 -8.21284
LeftToes  3.82444 1.85109e-006 5.31342e-008
Spine  6.30149 -10.7208 11.7366
Spine1  7.5535 -23.8406 25.8701
RightShoulder  0.172542 4.10469 16.707
RightArm  -45.4882 -9.19602 40.6923
RightForeArm  40.1408 6.48684 1.14134
RightHand  2.1543 -18.2078 -13.0098
LeftShoulder1  0.139278 -6.02489 2.73348
LeftArm  19.4951 -37.9936 -97.4056
LeftForeArm  110.085 -73.6663 -142.549
LeftHand  -0.0460343 9.02024 -0.952816
HEad  -19.8992 -54.8149 35.9911
RightUpLeg  -32.5304 10.8269 -7.86733
RightLeg  13.6099 35.6898 5.85511
RightFoot  13.3347 -1.0113 9.01219
RightToes  -37.8675 -0.201676 -0.303177
116
root  6.47537 32.9227 -5.93455 7.34792 -67.5903 3.96274
LeftUpLeg  -11.4552 21.1918 -10.3784
LeftLeg  27.4889 20.22 8.66715
LeftFoot  -20.1789 -1.41368 -7.93256
LeftToes  3.39123 1.85109e-006 5.31342e-008
Spine  6.26823 -10.7705 11.5977
Spine1  7.71511 -23.8737 25.4626
RightShoulder  0.174575 4.22413 16.8247
RightArm  -47.3987 -10.0717 42.9798
RightForeArm  37.6301 7.42559 1.3112
RightHand  2.24603 -18.1146 -13.6463
LeftShoulder1  0.126305 -5.47171 3.19859
LeftArm  24.8853 -37.7526 -101.766
LeftForeArm  115.059 -69.9669 -150.706
LeftHand  -0.127966 8.7396 -2.04283
HEad  -18.6507 -53.7319 34.0425
RightUpLeg  -32.0716 9.92175 -7.74803
RightLeg  13.2429 35.9146 5.66755
RightFoot  13.3971 -1.03213 9.14817
RightToes  -38.2187 -0.204412 -0.305675
117
root  6.46086 32.9325 -6.0457 6.62788 -66.9257 4.44879
LeftUpLeg  -11.2773 21.0827 -10.1915
LeftLeg  27.6694 19.7398 8.54378
LeftFoot  -20.0558 -1.36318 -7.69777
LeftToes  3.24195 1.85109e-006 5.31342e-008
Spine  6.15149 -10.5718 11.5812
Spine1  7.7005 -23.3939 25.2225
RightShoulder  0.170055 3.77393 16.7438
RightArm  -48.8936 -9.91156 45.177
RightForeArm  35.621 8.26107 1.46252
RightHand  2.10856 -17.9799 -12.8954
LeftShoulder1  0.116304 -5.80161 3.58647
LeftArm  28.3463 -36.7107 -103.208
LeftForeArm  116.528 -66.5805 -155.653
LeftHand  -0.115921 8.63541 -1.90368
HEad  -17.1744 -52.7189 31.5799
RightUpLeg  -31.6879 9.05518 -7.56816
RightLeg  13.2354 36.1935 5.701
RightFoot  13.4044 -1.04814 9.27882
RightToes  -38.7378 -0.208236 -0.307881
118
root  6.44222 32.9406 -6.16585 5.67909 -66.3023 4.98121
LeftUpLeg  -10.8693 20.8139 -9.97609
LeftLeg  27.7925 19.4713 8.48178
LeftFoot  -19.9509 -1.33128 -7.55841
LeftToes  3.10564 1.85109e-006 5.31342e-008
Spine  6.05824 -10.088 11.6839
Spine1  7.71886 -22.3494 25.162
RightShoulder  0.155282 2.58327 16.3621
RightArm  -48.59 -8.56844 47.242
RightForeArm  34.2359 8.97141 1.59128
RightHand  1.88319 -17.9155 -11.531
LeftShoulder1  0.108456 -6.75684 3.46856
LeftArm  29.7326 -35.6229 -102.762
LeftForeArm  112.235 -64.5069 -158.025
LeftHand  -0.0545352 10.5781 -0.95841
HEad  -15.7611 -52.3509 28.7275
RightUpLeg  -31.2324 8.69658 -7.54564
RightLeg  13.3839 35.9516 5.75692
RightFoot  13.4324 -1.0475 9.25473
RightToes  -39.1632 -0.211833 -0.309829
119
root  6.42703 32.9282 -6.29631 4.8857 -65.5677 5.28322
LeftUpLeg  -10.6183 20.2911 -9.66346
LeftLeg  28.4192 19.3085 8.6589
LeftFoot  -19.971 -1.33002 -7.54349
LeftToes  2.83649 1.85109e-006 5.31342e-008
Spine  6.02023 -9.59252 11.7074
Spine1  7.85372 -21.3184 24.917
RightShoulder  0.158001 1.84574 16.2839
RightArm  -46.8424 -6.74272 48.9288
RightForeArm  33.7425 9.71057 1.72499
RightHand  1.70885 -17.634 -10.6101
LeftShoulder1  0.104983 -7.08778 3.38907
LeftArm  30.0543 -35.0116 -102.28
LeftForeArm  111.796 -63.7611 -158.776
LeftHand  0.0390406 10.3835 0.0596773
HEad  -14.3447 -51.8409 26.4284
RightUpLeg  -30.9202 8.54462 -7.55242
RightLeg  13.9754 35.412 6.03177
RightFoot  13.2691 -1.00475 8.99915
RightToes  -39.4456 -0.214179 -0.311485
120
root  6.41605 32.9 -6.43353 4.19567 -64.484 5.38696
LeftUpLeg  -10.4081 19.7397 -9.22141
LeftLeg  29.3022 18.8471 8.80276
LeftFoot  -20.1223 -1.32741 -7.47113
LeftToes  2.5666 1.85109e-006 5.31342e-008
Spine  5.99717 -9.15191 11.6618
Spine1  8.0366 -20.4077 24.4837
RightShoulder  0.182459 1.90003 16.5247
RightArm  -44.3599 -4.91036 50.0297
RightForeArm  34.2372 10.5693 1.88025
RightHand  1.57202 -17.1888 -9.99992
LeftShoulder1  0.101488 -7.23082 3.16148
LeftArm  30.1191 -35.1749 -101.848
LeftForeArm  111.736 -63.1316 -159.375
LeftHand  0.0885218 10.3881 0.603436
HEad  -12.6981 -51.3008 24.4225
RightUpLeg  -30.5861 8.03968 -7.44154
RightLeg  14.874 34.8876 6.48036
RightFoot  12.9954 -0.94725 8.67956
RightToes  -39.6265 -0.215898 -0.313003
121
root  6.42017 32.8645 -6.56408 3.55367 -62.9895 5.50753
LeftUpLeg  -10.2983 19.0567 -8.81797
LeftLeg  30.2354 18.1533 8.84652
LeftFoot  -20.2623 -1.30668 -7.30308
LeftToes  2.04207 1.85109e-006 5.31342e-008
Spine  5.92376 -8.74203 11.6065
Spine1  8.16967 -19.532 23.9321
RightShoulder  0.225246 2.5409 16.7287
RightArm  -42.1705 -2.85237 50.5653
RightForeArm  35.4229 11.0756 1.97145
RightHand  1.49292 -16.4188 -9.94685
LeftShoulder1  0.0979031 -7.36204 2.94016
LeftArm  30.1681 -35.6926 -101.807
LeftForeArm  111.308 -62.3215 -160.107
LeftHand  0.138033 11.0199 1.06024
HEad  -10.9978 -50.6125 22.6346
RightUpLeg  -30.2977 6.97057 -7.32049
RightLeg  15.9379 34.4877 7.03546
RightFoot  12.6234 -0.88299 8.34741
RightToes  -39.8542 -0.217319 -0.314297
122
root  6.43471 32.8278 -6.69233 2.91449 -61.1973 5.60753
LeftUpLeg  -10.1961 18.6222 -8.36922
LeftLeg  31.1238 17.0086 8.63341
LeftFoot  -20.3366 -1.24313 -6.92286
LeftToes  1.27897 1.85109e-006 5.31342e-008
Spine  5.84062 -8.34587 11.5668
Spine1  8.34943 -18.6471 23.2809
RightShoulder  0.275463 3.27788 16.9292
RightArm  -40.1497 -0.167431 50.5087
RightForeArm  36.7881 11.1816 1.98953
RightHand  1.42149 -15.9335 -9.75737
LeftShoulder1  0.0940728 -7.311 2.79408
LeftArm  30.6338 -36.1464 -102.108
LeftForeArm  113.555 -61.9089 -160.448
LeftHand  0.23258 10.8032 2.08805
HEad  -9.57881 -49.9668 21.0784
RightUpLeg  -29.9321 5.84439 -7.3228
RightLeg  16.8819 33.9156 7.47836
RightFoot  12.2668 -0.818531 7.98316
RightToes  -39.9715 -0.218255 -0.315545
123
root  6.46157 32.7982 -6.81815 2.25317 -59.2021 5.78483
LeftUpLeg  -10.0965 18.1368 -8.00489
LeftLeg  31.8323 15.7872 8.27901
LeftFoot  -20.3185 -1.16148 -6.475
LeftToes  0.514723 1.85109e-006 5.31342e-008
Spine  5.73725 -7.94004 11.5177
Spine1  8.5503 -17.7 22.5003
RightShoulder  0.331521 4.16956 17.1234
RightArm  -39.129 2.97478 49.7871
RightForeArm  38.9851 10.7636 1.91104
RightHand  1.29345 -15.4181 -9.15971
LeftShoulder1  0.0903897 -7.23348 2.60368
LeftArm  31.0849 -36.3897 -102.531
LeftForeArm  114.706 -61.7475 -160.577
LeftHand  0.276766 10.937 2.51886
HEad  -8.3588 -49.3783 19.6482
RightUpLeg  -29.5003 4.85195 -7.52344
RightLeg  17.5413 32.9867 7.67172
RightFoot  11.973 -0.754351 7.56128
RightToes  -39.8466 -0.219387 -0.316816
124
root  6.50141 32.7792 -6.93903 1.55359 -57.1272 6.00951
LeftUpLeg  -9.91073 17.4684 -7.719
LeftLeg  32.3119 14.6542 7.85915
LeftFoot  -20.1984 -1.07491 -6.0296
LeftToes  -0.274065 1.85109e-006 5.31342e-008
Spine  5.65679 -7.51339 11.4507
Spine1  8.83418 -16.6696 21.6214
RightShoulder  0.384755 5.14841 17.0766
RightArm  -38.589 6.19781 48.5909
RightForeArm  41.2369 10.2985 1.82388
RightHand  1.18893 -14.9747 -8.65416
LeftShoulder1  0.0870666 -7.05378 2.53364
LeftArm  31.6911 -36.5134 -103.159
LeftForeArm  114.859 -61.4135 -160.853
LeftHand  0.314548 11.2247 2.82841
HEad  -7.48113 -48.7623 18.5645
RightUpLeg  -28.9352 4.06431 -7.88929
RightLeg  17.8435 31.8153 7.59678
RightFoot  11.8209 -0.703724 7.16693
RightToes  -39.9382 -0.220465 -0.318087
125
root  6.56105 32.7704 -7.06164 0.765155 -55.0359 6.3047
LeftUpLeg  -9.70015 16.6801 -7.54653
LeftLeg  32.6932 13.6572 7.45594
LeftFoot  -19.9531 -0.987668 -5.61044
LeftToes  -1.03073 1.85109e-006 5.31342e-008
Spine  5.601 -7.08196 11.3402
Spine1  9.16837 -15.5929 20.6678
RightShoulder  0.428365 6.19101 16.7309
RightArm  -38.614 9.12895 47.036
RightForeArm  43.3113 10.0497 1.77611
RightHand  1.18974 -14.5693 -8.91317
LeftShoulder1  0.0844825 -6.69493 2.49588
LeftArm  32.6929 -36.6202 -103.802
LeftForeArm  116.436 -60.9946 -161.182
LeftHand  0.432893 11.2455 4.02247
HEad  -6.74013 -47.9566 17.7301
RightUpLeg  -28.2192 3.46968 -8.4061
RightLeg  17.7897 30.4886 7.28487
RightFoot  11.8164 -0.667654 6.82211
RightToes  -40.3279 -0.221634 -0.319334
126
root  6.6395 32.7693 -7.1902 -0.115721 -52.9082 6.62067
LeftUpLeg  -9.42209 15.9403 -7.41658
LeftLeg  33.0129 12.5867 6.97675
LeftFoot  -19.699 -0.897421 -5.16549
LeftToes  -1.38308 1.85109e-006 5.31342e-008
Spine  5.56381 -6.72181 11.1558
Spine1  9.4838 -14.6385 19.6401
RightShoulder  0.459303 7.22355 16.3539
RightArm  -38.9132 11.647 45.0676
RightForeArm  44.7445 10.1178 1.78648
RightHand  1.25491 -14.3041 -9.60178
LeftShoulder1  0.082286 -6.22476 2.39469
LeftArm  33.3991 -36.6927 -104.238
LeftForeArm  117.447 -60.7194 -161.394
LeftHand  0.539182 11.3863 5.03147
HEad  -6.25669 -47.1961 17.3224
RightUpLeg  -27.3904 2.72388 -8.93354
RightLeg  17.6835 29.2809 6.96996
RightFoot  11.8652 -0.641236 6.54205
RightToes  -40.5148 -0.223033 -0.320532
127
root  6.74057 32.7775 -7.33614 -0.83689 -50.866 6.85703
LeftUpLeg  -9.22874 15.419 -7.29637
LeftLeg  33.1769 11.4263 6.38992
LeftFoot  -19.389 -0.798536 -4.67183
LeftToes  -1.68455 1.85109e-006 5.31342e-008
Spine  5.49805 -6.36272 10.9635
Spine1  9.65812 -13.6922 18.7676
RightShoulder  0.467171 8.07195 15.6832
RightArm  -39.5598 13.4542 42.8838
RightForeArm  45.1025 10.8249 1.91443
RightHand  1.26692 -14.0573 -9.87424
LeftShoulder1  0.0803331 -5.97332 2.32726
LeftArm  33.6787 -36.8269 -104.411
LeftForeArm  117.623 -60.4746 -161.583
LeftHand  0.556926 11.5137 5.14696
HEad  -6.21434 -46.4902 17.1213
RightUpLeg  -26.5767 2.32082 -9.52183
RightLeg  17.2465 27.8693 6.44988
RightFoot  12.1434 -0.632397 6.31719
RightToes  -40.9245 -0.224807 -0.321657
128
root  6.84931 32.7976 -7.48999 -1.76343 -48.6767 7.22472
LeftUpLeg  -8.9452 14.7415 -7.29573
LeftLeg  33.3176 10.3217 5.81614
LeftFoot  -18.8729 -0.692582 -4.16531
LeftToes  -2.09241 1.85109e-006 5.31342e-008
Spine  5.39584 -6.18071 10.6494
Spine1  9.70203 -13.0872 17.7595
RightShoulder  0.460046 8.62607 15.3701
RightArm  -40.0215 15.0213 40.4992
RightForeArm  44.7155 11.5528 2.0479
RightHand  1.28196 -13.7329 -10.2411
LeftShoulder1  0.0774186 -5.57993 2.11067
LeftArm  33.8111 -36.7008 -104.273
LeftForeArm  118.006 -60.1462 -161.831
LeftHand  0.587292 11.6648 5.37155
HEad  -5.79723 -45.5016 16.6981
RightUpLeg  -25.5454 1.74747 -10.1992
RightLeg  16.6862 26.4741 5.89176
RightFoot  12.4618 -0.62604 6.10646
RightToes  -41.0712 -0.227096 -0.322687
